<?xml version="1.0" encoding="utf-8"?>
<!-- Generator: Adobe Illustrator 25.0.0, SVG Export Plug-In . SVG Version: 6.00 Build 0)  -->
<svg version="1.1" id="Layer_1" xmlns="http://www.w3.org/2000/svg" xmlns:xlink="http://www.w3.org/1999/xlink" x="0px" y="0px"
	 viewBox="0 0 350 350" style="enable-background:new 0 0 350 350;" xml:space="preserve">
<style type="text/css">
	.st0{fill:#003A63;}
	.st1{fill:#008EE3;}
	.st2{fill:#BFBFBF;}
	.st3{fill:#FFFFFF;}
</style>
<rect x="-23.3" y="-15.8" class="st0" width="392.8" height="389.2"/>
<polygon class="st1" points="284.9,270.5 174.3,270.5 63.6,270.5 174.3,85 "/>
<circle class="st2" cx="174" cy="85.9" r="11.9"/>
<circle class="st2" cx="64.4" cy="270.2" r="11.9"/>
<circle class="st2" cx="283.8" cy="270.2" r="11.9"/>
<circle class="st2" cx="145.2" cy="132" r="11.9"/>
<circle class="st2" cx="203.3" cy="132" r="11.9"/>
<circle class="st2" cx="119.1" cy="177.5" r="11.9"/>
<circle class="st2" cx="230.9" cy="177.5" r="11.9"/>
<circle class="st2" cx="93" cy="224.5" r="11.9"/>
<circle class="st2" cx="255.5" cy="224.5" r="11.9"/>
<circle class="st2" cx="174" cy="217.7" r="11.9"/>
<circle class="st2" cx="119.1" cy="270.2" r="11.9"/>
<circle class="st2" cx="174" cy="270.2" r="11.9"/>
<circle class="st2" cx="230.9" cy="270.2" r="11.9"/>
<g>
	<rect x="157" y="31.7" class="st3" width="33.8" height="33.8"/>
	<g>
		<path d="M171.6,51l-1.8,5.3h-2.3l5.8-16.9h2.6l5.8,16.9h-2.3l-1.8-5.3H171.6z M177.1,49.3l-1.7-4.9c-0.4-1.1-0.6-2.1-0.9-3.1h-0.1
			c-0.3,1-0.5,2-0.9,3.1l-1.7,4.9H177.1z"/>
	</g>
</g>
<g>
	<rect x="18.2" y="287" class="st3" width="33.8" height="33.8"/>
	<g>
		<path d="M30.9,295c1-0.2,2.5-0.4,4-0.4c2.2,0,3.6,0.4,4.6,1.2c0.9,0.7,1.4,1.7,1.4,3c0,1.7-1.1,3.1-2.9,3.7v0.1
			c1.6,0.4,3.5,1.7,3.5,4.2c0,1.5-0.6,2.6-1.5,3.4c-1.2,1.1-3.1,1.6-5.8,1.6c-1.5,0-2.7-0.1-3.4-0.2V295z M33.1,301.9h2
			c2.3,0,3.6-1.2,3.6-2.9c0-2-1.5-2.8-3.7-2.8c-1,0-1.6,0.1-1.9,0.2V301.9z M33.1,310c0.5,0.1,1.1,0.1,1.8,0.1
			c2.3,0,4.3-0.8,4.3-3.3c0-2.3-2-3.3-4.4-3.3h-1.8V310z"/>
	</g>
</g>
<g>
	<rect x="298.6" y="286.5" class="st3" width="33.8" height="33.8"/>
	<g>
		<path d="M322.6,310.7c-0.8,0.4-2.4,0.8-4.5,0.8c-4.8,0-8.3-3-8.3-8.6c0-5.3,3.6-8.9,8.8-8.9c2.1,0,3.4,0.5,4,0.8l-0.6,1.8
			c-0.8-0.4-2-0.7-3.4-0.7c-4,0-6.6,2.5-6.6,7c0,4.2,2.4,6.8,6.5,6.8c1.4,0,2.7-0.3,3.6-0.7L322.6,310.7z"/>
	</g>
</g>
<g>
	<rect x="157" y="165.8" class="st3" width="33.8" height="33.8"/>
	<g>
		<path d="M168.2,173.8c1.3-0.2,2.9-0.4,4.6-0.4c3.1,0,5.4,0.8,6.8,2.1c1.5,1.4,2.4,3.3,2.4,6.1c0,2.8-0.9,5-2.4,6.6
			c-1.6,1.6-4.2,2.4-7.5,2.4c-1.6,0-2.9-0.1-4-0.2V173.8z M170.3,188.7c0.6,0.1,1.4,0.1,2.2,0.1c4.7,0,7.2-2.6,7.2-7.2
			c0-4-2.2-6.5-6.8-6.5c-1.1,0-2,0.1-2.6,0.2V188.7z"/>
	</g>
</g>
</svg>
