<?xml version="1.0" encoding="utf-8"?>
<!-- Generator: Adobe Illustrator 25.0.0, SVG Export Plug-In . SVG Version: 6.00 Build 0)  -->
<svg version="1.1" id="Layer_1" xmlns="http://www.w3.org/2000/svg" xmlns:xlink="http://www.w3.org/1999/xlink" x="0px" y="0px"
	 viewBox="0 0 350 350" style="enable-background:new 0 0 350 350;" xml:space="preserve">
<style type="text/css">
	.st0{fill:#003A63;}
	.st1{fill:#008EE3;}
	.st2{fill:#FFFFFF;}
	.st3{fill:#191B1F;}
</style>
<rect x="-22.6" y="-16" class="st0" width="392.8" height="389.2"/>
<polygon class="st1" points="304,286.9 174.4,286.9 44.6,286.9 174.4,69.4 "/>
<g>
	<path class="st2" d="M188.7,84.2h-28.6c-3.3,0-6-2.7-6-6V49.6c0-3.3,2.7-6,6-6h28.6c3.3,0,6,2.7,6,6v28.6
		C194.7,81.5,192,84.2,188.7,84.2z"/>
	<g>
		<path d="M170.8,66.3l-2.1,6.2H166l6.8-19.8h3l6.8,19.8h-2.7l-2.1-6.2C177.8,66.3,170.8,66.3,170.8,66.3z M177.2,64.3l-2-5.7
			c-0.5-1.3-0.7-2.5-1.1-3.6H174c-0.4,1.2-0.6,2.3-1.1,3.6l-2,5.7H177.2z"/>
	</g>
</g>
<g>
	<path class="st2" d="M317.3,307.5h-28.6c-3.3,0-6-2.7-6-6V273c0-3.3,2.7-6,6-6h28.6c3.3,0,6,2.7,6,6v28.6
		C323.3,304.8,320.6,307.5,317.3,307.5z"/>
	<g>
		<path d="M297.2,276.8c1.2-0.2,2.9-0.5,4.7-0.5c2.6,0,4.2,0.5,5.4,1.4c1.1,0.8,1.6,2,1.6,3.5c0,2-1.3,3.6-3.4,4.3v0.1
			c1.9,0.5,4.1,2,4.1,4.9c0,1.8-0.7,3-1.8,4c-1.4,1.3-3.6,1.9-6.8,1.9c-1.8,0-3.2-0.1-4-0.2L297.2,276.8L297.2,276.8z M299.7,284.9
			h2.3c2.7,0,4.2-1.4,4.2-3.4c0-2.3-1.8-3.3-4.3-3.3c-1.2,0-1.9,0.1-2.2,0.2C299.7,278.5,299.7,284.9,299.7,284.9z M299.7,294.4
			c0.6,0.1,1.3,0.1,2.1,0.1c2.7,0,5-0.9,5-3.9c0-2.7-2.3-3.9-5.2-3.9h-2.1v7.6L299.7,294.4L299.7,294.4z"/>
	</g>
</g>
<g>
	<path class="st2" d="M59.1,307.5H30.5c-3.3,0-6-2.7-6-6V273c0-3.3,2.7-6,6-6h28.6c3.3,0,6,2.7,6,6v28.6
		C65.1,304.8,62.4,307.5,59.1,307.5z"/>
	<g>
		<path d="M51.8,295.2c-0.9,0.5-2.8,0.9-5.3,0.9c-5.6,0-9.7-3.5-9.7-10.1c0-6.2,4.2-10.4,10.3-10.4c2.5,0,4,0.6,4.7,0.9l-0.7,2.1
			c-0.9-0.5-2.3-0.8-4-0.8c-4.7,0-7.7,2.9-7.7,8.2c0,4.9,2.8,8,7.6,8c1.6,0,3.2-0.4,4.2-0.8L51.8,295.2z"/>
	</g>
</g>
<g>
	<path class="st2" d="M188.7,225.5h-28.6c-3.3,0-6-2.7-6-6v-28.6c0-3.3,2.7-6,6-6h28.6c3.3,0,6,2.7,6,6v28.6
		C194.7,222.8,192,225.5,188.7,225.5z"/>
	<g>
		<path d="M167.2,194.9c1.5-0.2,3.4-0.5,5.4-0.5c3.6,0,6.3,0.9,8,2.5c1.8,1.6,2.8,3.9,2.8,7.2c0,3.3-1.1,5.9-2.8,7.7
			c-1.9,1.9-4.9,2.8-8.8,2.8c-1.9,0-3.4-0.1-4.7-0.2L167.2,194.9L167.2,194.9z M169.7,212.3c0.7,0.1,1.6,0.1,2.6,0.1
			c5.5,0,8.4-3,8.4-8.4c0-4.7-2.6-7.6-8-7.6c-1.3,0-2.3,0.1-3,0.2L169.7,212.3L169.7,212.3z"/>
	</g>
</g>
<path class="st3" d="M189.7,300.6H159c-2.1,0-3.8-1.7-3.8-3.8v-18.9c0-2.1,1.7-3.8,3.8-3.8h30.7c2.1,0,3.8,1.7,3.8,3.8v18.9
	C193.6,298.8,191.8,300.6,189.7,300.6z"/>
<path class="st3" d="M251.8,300.6h-30.7c-2.1,0-3.8-1.7-3.8-3.8v-18.9c0-2.1,1.7-3.8,3.8-3.8h30.7c2.1,0,3.8,1.7,3.8,3.8v18.9
	C255.6,298.8,253.9,300.6,251.8,300.6z"/>
<path class="st3" d="M127.2,300.6H96.5c-2.1,0-3.8-1.7-3.8-3.8v-18.9c0-2.1,1.7-3.8,3.8-3.8h30.7c2.1,0,3.8,1.7,3.8,3.8v18.9
	C131.1,298.8,129.3,300.6,127.2,300.6z"/>
<path class="st3" d="M222.6,136.9h-30.7c-2.1,0-3.8-1.7-3.8-3.8v-18.9c0-2.1,1.7-3.8,3.8-3.8h30.7c2.1,0,3.8,1.7,3.8,3.8V133
	C226.4,135.1,224.7,136.9,222.6,136.9z"/>
<path class="st3" d="M157.2,136.9h-30.7c-2.1,0-3.8-1.7-3.8-3.8v-18.9c0-2.1,1.7-3.8,3.8-3.8h30.7c2.1,0,3.8,1.7,3.8,3.8V133
	C161,135.1,159.3,136.9,157.2,136.9z"/>
<path class="st3" d="M255.3,191.9h-30.7c-2.1,0-3.8-1.7-3.8-3.8v-18.9c0-2.1,1.7-3.8,3.8-3.8h30.7c2.1,0,3.8,1.7,3.8,3.8v18.9
	C259.1,190.2,257.4,191.9,255.3,191.9z"/>
<path class="st3" d="M123.7,191.9H93c-2.1,0-3.8-1.7-3.8-3.8v-18.9c0-2.1,1.7-3.8,3.8-3.8h30.7c2.1,0,3.8,1.7,3.8,3.8v18.9
	C127.6,190.2,125.8,191.9,123.7,191.9z"/>
<path class="st3" d="M286.8,245.5h-30.7c-2.1,0-3.8-1.7-3.8-3.8v-18.9c0-2.1,1.7-3.8,3.8-3.8h30.7c2.1,0,3.8,1.7,3.8,3.8v18.9
	C290.6,243.7,288.9,245.5,286.8,245.5z"/>
<path class="st3" d="M92.6,245.5H61.9c-2.1,0-3.8-1.7-3.8-3.8v-18.9c0-2.1,1.7-3.8,3.8-3.8h30.7c2.1,0,3.8,1.7,3.8,3.8v18.9
	C96.5,243.7,94.7,245.5,92.6,245.5z"/>
<g>
	<path class="st2" d="M200.3,127.2l-0.7-2.4h-3.7l-0.7,2.4h-2.3l3.5-10.1h2.6l3.6,10.1H200.3z M199,123c-0.7-2.2-1.1-3.4-1.1-3.7
		c-0.1-0.3-0.1-0.5-0.2-0.7c-0.2,0.6-0.6,2-1.3,4.3H199z"/>
	<path class="st2" d="M210,127.2l-0.7-2.4h-3.7l-0.7,2.4h-2.3l3.5-10.1h2.6l3.6,10.1H210z M208.8,123c-0.7-2.2-1.1-3.4-1.1-3.7
		s-0.1-0.5-0.2-0.7c-0.2,0.6-0.6,2-1.3,4.3H208.8z"/>
	<path class="st2" d="M213.5,117.2h3.1c1.4,0,2.5,0.2,3.1,0.6c0.6,0.4,1,1,1,1.9c0,0.6-0.1,1.1-0.4,1.5c-0.3,0.4-0.7,0.6-1.1,0.7
		v0.1c0.6,0.1,1.1,0.4,1.4,0.8s0.4,0.9,0.4,1.6c0,0.9-0.3,1.6-1,2.1c-0.7,0.5-1.6,0.8-2.7,0.8h-3.8V117.2z M215.7,121.1h1.2
		c0.6,0,1-0.1,1.3-0.3c0.3-0.2,0.4-0.5,0.4-0.9c0-0.4-0.1-0.7-0.4-0.8c-0.3-0.2-0.7-0.3-1.3-0.3h-1.1V121.1z M215.7,122.8v2.6h1.4
		c0.6,0,1-0.1,1.3-0.3c0.3-0.2,0.4-0.6,0.4-1c0-0.8-0.6-1.3-1.8-1.3H215.7z"/>
</g>
<g>
	<path class="st2" d="M237.4,183.1l-0.7-2.4h-3.7l-0.7,2.4H230l3.5-10.1h2.6l3.6,10.1H237.4z M236.2,178.9c-0.7-2.2-1.1-3.4-1.1-3.7
		s-0.1-0.5-0.2-0.7c-0.2,0.6-0.6,2-1.3,4.3H236.2z"/>
	<path class="st2" d="M241,173h3.1c1.4,0,2.5,0.2,3.1,0.6s1,1,1,1.9c0,0.6-0.1,1.1-0.4,1.5c-0.3,0.4-0.7,0.6-1.1,0.7v0.1
		c0.6,0.1,1.1,0.4,1.4,0.8c0.3,0.4,0.4,0.9,0.4,1.6c0,0.9-0.3,1.6-1,2.1c-0.7,0.5-1.6,0.8-2.7,0.8H241V173z M243.1,177h1.2
		c0.6,0,1-0.1,1.3-0.3c0.3-0.2,0.4-0.5,0.4-0.9c0-0.4-0.1-0.7-0.4-0.8s-0.7-0.3-1.3-0.3h-1.1V177z M243.1,178.7v2.6h1.4
		c0.6,0,1-0.1,1.3-0.3s0.4-0.6,0.4-1c0-0.8-0.6-1.3-1.8-1.3H243.1z"/>
</g>
<g>
	<path class="st2" d="M264.1,236.3l-0.7-2.4h-3.7l-0.7,2.4h-2.3l3.5-10.1h2.6l3.6,10.1H264.1z M262.9,232.1
		c-0.7-2.2-1.1-3.4-1.1-3.7s-0.1-0.5-0.2-0.7c-0.2,0.6-0.6,2-1.3,4.3H262.9z"/>
	<path class="st2" d="M267.7,226.2h3.1c1.4,0,2.5,0.2,3.1,0.6c0.6,0.4,1,1,1,1.9c0,0.6-0.1,1.1-0.4,1.5c-0.3,0.4-0.7,0.6-1.1,0.7
		v0.1c0.6,0.1,1.1,0.4,1.4,0.8c0.3,0.4,0.4,0.9,0.4,1.6c0,0.9-0.3,1.6-1,2.1c-0.7,0.5-1.6,0.8-2.7,0.8h-3.8V226.2z M269.8,230.2h1.2
		c0.6,0,1-0.1,1.3-0.3s0.4-0.5,0.4-0.9c0-0.4-0.1-0.7-0.4-0.8c-0.3-0.2-0.7-0.3-1.3-0.3h-1.1V230.2z M269.8,231.9v2.6h1.4
		c0.6,0,1-0.1,1.3-0.3s0.4-0.6,0.4-1c0-0.8-0.6-1.3-1.8-1.3H269.8z"/>
	<path class="st2" d="M277.1,226.2h3.1c1.4,0,2.5,0.2,3.1,0.6c0.6,0.4,1,1,1,1.9c0,0.6-0.1,1.1-0.4,1.5c-0.3,0.4-0.7,0.6-1.1,0.7
		v0.1c0.6,0.1,1.1,0.4,1.4,0.8c0.3,0.4,0.4,0.9,0.4,1.6c0,0.9-0.3,1.6-1,2.1c-0.7,0.5-1.6,0.8-2.7,0.8h-3.8V226.2z M279.3,230.2h1.2
		c0.6,0,1-0.1,1.3-0.3c0.3-0.2,0.4-0.5,0.4-0.9c0-0.4-0.1-0.7-0.4-0.8c-0.3-0.2-0.7-0.3-1.3-0.3h-1.1V230.2z M279.3,231.9v2.6h1.4
		c0.6,0,1-0.1,1.3-0.3s0.4-0.6,0.4-1c0-0.8-0.6-1.3-1.8-1.3H279.3z"/>
</g>
<g>
	<path class="st2" d="M224.8,282.2h3.1c1.4,0,2.5,0.2,3.1,0.6c0.6,0.4,1,1,1,1.9c0,0.6-0.1,1.1-0.4,1.5s-0.7,0.6-1.1,0.7v0.1
		c0.6,0.1,1.1,0.4,1.4,0.8c0.3,0.4,0.4,0.9,0.4,1.6c0,0.9-0.3,1.6-1,2.1c-0.7,0.5-1.6,0.8-2.7,0.8h-3.8V282.2z M226.9,286.2h1.2
		c0.6,0,1-0.1,1.3-0.3c0.3-0.2,0.4-0.5,0.4-0.9c0-0.4-0.1-0.7-0.4-0.8c-0.3-0.2-0.7-0.3-1.3-0.3h-1.1V286.2z M226.9,287.9v2.6h1.4
		c0.6,0,1-0.1,1.3-0.3c0.3-0.2,0.4-0.6,0.4-1c0-0.8-0.6-1.3-1.8-1.3H226.9z"/>
	<path class="st2" d="M234.2,282.2h3.1c1.4,0,2.5,0.2,3.1,0.6c0.6,0.4,1,1,1,1.9c0,0.6-0.1,1.1-0.4,1.5s-0.7,0.6-1.1,0.7v0.1
		c0.6,0.1,1.1,0.4,1.4,0.8c0.3,0.4,0.4,0.9,0.4,1.6c0,0.9-0.3,1.6-1,2.1c-0.7,0.5-1.6,0.8-2.7,0.8h-3.8V282.2z M236.3,286.2h1.2
		c0.6,0,1-0.1,1.3-0.3c0.3-0.2,0.4-0.5,0.4-0.9c0-0.4-0.1-0.7-0.4-0.8c-0.3-0.2-0.7-0.3-1.3-0.3h-1.1V286.2z M236.3,287.9v2.6h1.4
		c0.6,0,1-0.1,1.3-0.3c0.3-0.2,0.4-0.6,0.4-1c0-0.8-0.6-1.3-1.8-1.3H236.3z"/>
	<path class="st2" d="M247.9,283.9c-0.8,0-1.4,0.3-1.9,0.9c-0.4,0.6-0.7,1.4-0.7,2.5c0,2.2,0.8,3.4,2.5,3.4c0.7,0,1.6-0.2,2.6-0.5
		v1.8c-0.8,0.3-1.7,0.5-2.8,0.5c-1.5,0-2.6-0.4-3.4-1.3c-0.8-0.9-1.2-2.2-1.2-3.8c0-1,0.2-2,0.6-2.7c0.4-0.8,0.9-1.4,1.6-1.8
		c0.7-0.4,1.5-0.6,2.5-0.6c1,0,2,0.2,2.9,0.7l-0.7,1.7c-0.4-0.2-0.8-0.3-1.1-0.5S248.3,283.9,247.9,283.9z"/>
</g>
<g>
	<path class="st2" d="M166.2,282.2h3.1c1.4,0,2.5,0.2,3.1,0.6c0.6,0.4,1,1,1,1.9c0,0.6-0.1,1.1-0.4,1.5s-0.7,0.6-1.1,0.7v0.1
		c0.6,0.1,1.1,0.4,1.4,0.8c0.3,0.4,0.4,0.9,0.4,1.6c0,0.9-0.3,1.6-1,2.1c-0.7,0.5-1.6,0.8-2.7,0.8h-3.8V282.2z M168.4,286.2h1.2
		c0.6,0,1-0.1,1.3-0.3c0.3-0.2,0.4-0.5,0.4-0.9c0-0.4-0.1-0.7-0.4-0.8c-0.3-0.2-0.7-0.3-1.3-0.3h-1.1V286.2z M168.4,287.9v2.6h1.4
		c0.6,0,1-0.1,1.3-0.3c0.3-0.2,0.4-0.6,0.4-1c0-0.8-0.6-1.3-1.8-1.3H168.4z"/>
	<path class="st2" d="M180,283.9c-0.8,0-1.4,0.3-1.9,0.9c-0.4,0.6-0.7,1.4-0.7,2.5c0,2.2,0.8,3.4,2.5,3.4c0.7,0,1.6-0.2,2.6-0.5v1.8
		c-0.8,0.3-1.7,0.5-2.8,0.5c-1.5,0-2.6-0.4-3.4-1.3c-0.8-0.9-1.2-2.2-1.2-3.8c0-1,0.2-2,0.6-2.7c0.4-0.8,0.9-1.4,1.6-1.8
		c0.7-0.4,1.5-0.6,2.5-0.6c1,0,2,0.2,2.9,0.7l-0.7,1.7c-0.4-0.2-0.8-0.3-1.1-0.5C180.7,283.9,180.3,283.9,180,283.9z"/>
</g>
<g>
	<path class="st2" d="M69.1,227.9c-0.8,0-1.4,0.3-1.9,0.9s-0.7,1.4-0.7,2.5c0,2.2,0.8,3.4,2.5,3.4c0.7,0,1.6-0.2,2.6-0.5v1.8
		c-0.8,0.3-1.7,0.5-2.8,0.5c-1.5,0-2.6-0.4-3.4-1.3c-0.8-0.9-1.2-2.2-1.2-3.8c0-1,0.2-2,0.6-2.7c0.4-0.8,0.9-1.4,1.6-1.8
		s1.5-0.6,2.5-0.6c1,0,2,0.2,2.9,0.7l-0.7,1.7c-0.4-0.2-0.8-0.3-1.1-0.5C69.8,227.9,69.4,227.9,69.1,227.9z"/>
	<path class="st2" d="M78,227.9c-0.8,0-1.4,0.3-1.9,0.9c-0.4,0.6-0.7,1.4-0.7,2.5c0,2.2,0.8,3.4,2.5,3.4c0.7,0,1.6-0.2,2.6-0.5v1.8
		c-0.8,0.3-1.7,0.5-2.8,0.5c-1.5,0-2.6-0.4-3.4-1.3c-0.8-0.9-1.2-2.2-1.2-3.8c0-1,0.2-2,0.6-2.7c0.4-0.8,0.9-1.4,1.6-1.8
		c0.7-0.4,1.5-0.6,2.5-0.6c1,0,2,0.2,2.9,0.7l-0.7,1.7c-0.4-0.2-0.8-0.3-1.1-0.5C78.8,227.9,78.4,227.9,78,227.9z"/>
	<path class="st2" d="M88.9,236.3l-0.7-2.4h-3.7l-0.7,2.4h-2.3l3.5-10.1h2.6l3.6,10.1H88.9z M87.6,232.1c-0.7-2.2-1.1-3.4-1.1-3.7
		c-0.1-0.3-0.1-0.5-0.2-0.7c-0.2,0.6-0.6,2-1.3,4.3H87.6z"/>
</g>
<g>
	<path class="st2" d="M105,174.7c-0.8,0-1.4,0.3-1.9,0.9s-0.7,1.4-0.7,2.5c0,2.2,0.8,3.4,2.5,3.4c0.7,0,1.6-0.2,2.6-0.5v1.8
		c-0.8,0.3-1.7,0.5-2.8,0.5c-1.5,0-2.6-0.4-3.4-1.3c-0.8-0.9-1.2-2.2-1.2-3.8c0-1,0.2-2,0.6-2.7c0.4-0.8,0.9-1.4,1.6-1.8
		s1.5-0.6,2.5-0.6c1,0,2,0.2,2.9,0.7l-0.7,1.7c-0.4-0.2-0.8-0.3-1.1-0.5C105.7,174.7,105.3,174.7,105,174.7z"/>
	<path class="st2" d="M115.8,183.1l-0.7-2.4h-3.7l-0.7,2.4h-2.3l3.5-10.1h2.6l3.6,10.1H115.8z M114.6,178.9
		c-0.7-2.2-1.1-3.4-1.1-3.7s-0.1-0.5-0.2-0.7c-0.2,0.6-0.6,2-1.3,4.3H114.6z"/>
</g>
<g>
	<path class="st2" d="M134.6,118.8c-0.8,0-1.4,0.3-1.9,0.9c-0.4,0.6-0.7,1.4-0.7,2.5c0,2.2,0.8,3.4,2.5,3.4c0.7,0,1.6-0.2,2.6-0.5
		v1.8c-0.8,0.3-1.7,0.5-2.8,0.5c-1.5,0-2.6-0.4-3.4-1.3c-0.8-0.9-1.2-2.2-1.2-3.8c0-1,0.2-2,0.6-2.7c0.4-0.8,0.9-1.4,1.6-1.8
		c0.7-0.4,1.5-0.6,2.5-0.6c1,0,2,0.2,2.9,0.7l-0.7,1.7c-0.4-0.2-0.8-0.3-1.1-0.5C135.3,118.9,134.9,118.8,134.6,118.8z"/>
	<path class="st2" d="M145.4,127.2l-0.7-2.4H141l-0.7,2.4H138l3.5-10.1h2.6l3.6,10.1H145.4z M144.2,123c-0.7-2.2-1.1-3.4-1.1-3.7
		s-0.1-0.5-0.2-0.7c-0.2,0.6-0.6,2-1.3,4.3H144.2z"/>
	<path class="st2" d="M155.1,127.2l-0.7-2.4h-3.7l-0.7,2.4h-2.3l3.5-10.1h2.6l3.6,10.1H155.1z M153.9,123c-0.7-2.2-1.1-3.4-1.1-3.7
		s-0.1-0.5-0.2-0.7c-0.2,0.6-0.6,2-1.3,4.3H153.9z"/>
</g>
<g>
	<path class="st2" d="M99.3,282.3h3.1c1.4,0,2.5,0.2,3.1,0.6c0.6,0.4,1,1,1,1.9c0,0.6-0.1,1.1-0.4,1.5c-0.3,0.4-0.7,0.6-1.1,0.7v0.1
		c0.6,0.1,1.1,0.4,1.4,0.8s0.4,0.9,0.4,1.6c0,0.9-0.3,1.6-1,2.1c-0.7,0.5-1.6,0.8-2.7,0.8h-3.8V282.3z M101.4,286.3h1.2
		c0.6,0,1-0.1,1.3-0.3c0.3-0.2,0.4-0.5,0.4-0.9c0-0.4-0.1-0.7-0.4-0.8s-0.7-0.2-1.3-0.2h-1.1V286.3z M101.4,288v2.6h1.4
		c0.6,0,1-0.1,1.3-0.3c0.3-0.2,0.4-0.6,0.4-1c0-0.8-0.6-1.2-1.8-1.2H101.4z"/>
	<path class="st2" d="M113,283.9c-0.8,0-1.4,0.3-1.9,0.9s-0.7,1.4-0.7,2.5c0,2.2,0.8,3.4,2.5,3.4c0.7,0,1.6-0.2,2.6-0.5v1.8
		c-0.8,0.3-1.7,0.5-2.8,0.5c-1.5,0-2.6-0.4-3.3-1.3c-0.8-0.9-1.2-2.2-1.2-3.8c0-1,0.2-2,0.6-2.7c0.4-0.8,0.9-1.4,1.6-1.8
		c0.7-0.4,1.5-0.6,2.5-0.6c1,0,2,0.2,2.9,0.7l-0.7,1.7c-0.4-0.2-0.8-0.3-1.1-0.5S113.4,283.9,113,283.9z"/>
	<path class="st2" d="M121.9,283.9c-0.8,0-1.4,0.3-1.9,0.9s-0.7,1.4-0.7,2.5c0,2.2,0.8,3.4,2.5,3.4c0.7,0,1.6-0.2,2.6-0.5v1.8
		c-0.8,0.3-1.7,0.5-2.8,0.5c-1.5,0-2.6-0.4-3.3-1.3c-0.8-0.9-1.2-2.2-1.2-3.8c0-1,0.2-2,0.6-2.7c0.4-0.8,0.9-1.4,1.6-1.8
		c0.7-0.4,1.5-0.6,2.5-0.6c1,0,2,0.2,2.9,0.7l-0.7,1.7c-0.4-0.2-0.8-0.3-1.1-0.5S122.3,283.9,121.9,283.9z"/>
</g>
</svg>
